<?xml version="1.0" encoding="UTF-8" standalone="no"?>
<!DOCTYPE svg PUBLIC "-//W3C//DTD SVG 1.1//EN" "http://www.w3.org/Graphics/SVG/1.1/DTD/svg11.dtd">
<svg width="100%" height="100%" viewBox="0 0 1920 1080" version="1.1" xmlns="http://www.w3.org/2000/svg" xmlns:xlink="http://www.w3.org/1999/xlink" xml:space="preserve" xmlns:serif="http://www.serif.com/" style="fill-rule:evenodd;clip-rule:evenodd;stroke-linejoin:round;stroke-miterlimit:2;">
    <g transform="matrix(1,0,0,1,0,-7910)">
        <rect id="Prancheta8" x="0" y="7910" width="1920" height="1080" style="fill:none;"/>
        <g id="Prancheta81" serif:id="Prancheta8">
            <g transform="matrix(12.312866,0,0,12.312866,-5342.886221,-7384.598805)">
                <g transform="matrix(1,0,0,0.883332,0,151.656619)">
                    <path d="M490.464,1260.369L484.58,1278.216L491.026,1299.896L480.406,1299.896L476.255,1282.952L476.255,1299.896L465.977,1299.896L465.977,1260.369L476.255,1260.369L476.255,1275.726L480.821,1260.369L490.464,1260.369Z" style="fill:rgb(0,23,35);fill-rule:nonzero;"/>
                </g>
                <g transform="matrix(1,0,0,0.880103,-2.54257,155.873694)">
                    <path d="M515.391,1283.514C515.391,1287.485 515.297,1290.297 515.11,1291.949C514.923,1293.601 514.337,1295.111 513.352,1296.478C512.368,1297.845 511.037,1298.895 509.361,1299.627C507.684,1300.36 505.137,1299.886 503.21,1299.896C501.284,1299.906 499.485,1300.38 497.801,1299.688C496.116,1298.997 494.761,1297.959 493.736,1296.575C492.71,1295.192 492.1,1293.686 491.905,1292.059C491.709,1290.431 491.612,1287.583 491.612,1283.514L491.612,1276.751C491.612,1272.78 491.705,1269.968 491.892,1268.316C492.08,1266.664 492.665,1265.155 493.65,1263.787C494.635,1262.42 495.965,1261.37 497.642,1260.638C499.318,1259.906 501.575,1260.38 503.501,1260.369C505.428,1260.359 507.517,1259.885 509.202,1260.577C510.887,1261.269 512.242,1262.306 513.267,1263.69C514.292,1265.073 514.903,1266.579 515.098,1268.206C515.293,1269.834 515.391,1272.682 515.391,1276.751L515.391,1283.514ZM505.113,1270.526C505.113,1268.686 505.011,1267.511 504.807,1266.998C504.604,1266.485 504.185,1266.229 503.55,1266.229C503.013,1266.229 502.602,1266.436 502.317,1266.851C502.032,1267.266 501.89,1268.491 501.89,1270.526L501.89,1288.983C501.89,1291.278 501.984,1292.694 502.171,1293.231C502.358,1293.768 502.793,1294.036 503.477,1294.036C504.177,1294.036 504.624,1293.727 504.82,1293.109C505.015,1292.49 505.113,1291.017 505.113,1288.69L505.113,1270.526Z" style="fill:rgb(0,23,35);fill-rule:nonzero;"/>
                </g>
                <g transform="matrix(1,0,0,0.883332,-5.280723,151.656619)">
                    <path d="M519.224,1260.369L526.499,1260.369C531.35,1260.369 534.633,1260.557 536.35,1260.931C538.068,1261.305 539.467,1262.262 540.55,1263.8C541.632,1265.338 542.173,1267.791 542.173,1271.16C542.173,1274.237 541.791,1276.304 541.026,1277.362C540.261,1278.42 538.755,1279.054 536.509,1279.266C538.544,1279.77 539.911,1280.446 540.611,1281.292C541.311,1282.139 541.746,1282.916 541.917,1283.624C542.088,1284.332 542.173,1286.281 542.173,1289.471L542.173,1299.896L532.627,1299.896L532.627,1286.761C532.627,1284.645 532.46,1283.335 532.127,1282.83C531.793,1282.326 530.918,1282.074 529.502,1282.074L529.502,1299.896L519.224,1299.896L519.224,1260.369ZM529.502,1267.132L529.502,1275.921C530.658,1275.921 531.468,1275.763 531.931,1275.445C532.395,1275.128 532.627,1274.098 532.627,1272.357L532.627,1270.184C532.627,1268.931 532.403,1268.109 531.956,1267.718C531.508,1267.327 530.69,1267.132 529.502,1267.132Z" style="fill:rgb(0,23,35);fill-rule:nonzero;"/>
                </g>
                <g transform="matrix(1,0,0,0.883332,-8.214458,151.656619)">
                    <path d="M546.153,1260.369L563.291,1260.369L563.291,1268.28L556.431,1268.28L556.431,1275.775L562.852,1275.775L562.852,1283.294L556.431,1283.294L556.431,1291.986L563.975,1291.986L563.975,1299.896L546.153,1299.896L546.153,1260.369Z" style="fill:rgb(0,23,35);fill-rule:nonzero;"/>
                </g>
                <g transform="matrix(1,0,0,1,-8.214458,0)">
                    <path d="M573.203,1291.839C574.444,1293.182 574.444,1298.553 573.203,1299.896C571.962,1301.239 566.998,1301.239 565.757,1299.896C564.516,1298.553 564.516,1293.182 565.757,1291.839C566.998,1290.496 571.962,1290.496 573.203,1291.839Z" style="fill:rgb(0,174,23);fill-rule:nonzero;"/>
                </g>
            </g>
        </g>
    </g>
</svg>
